<svg xmlns="http://www.w3.org/2000/svg" viewBox="0 0 1024 1024" width="1024" height="1024"><defs><radialGradient id="gl" cx=".22" cy=".08" r=".85"><stop offset="0" stop-color="#fff" stop-opacity=".5"/><stop offset=".55" stop-color="#fff" stop-opacity="0"/></radialGradient><filter id="sh" x="-30%" y="-30%" width="160%" height="170%"><feDropShadow dx="0" dy="20" stdDeviation="20" flood-color="#000" flood-opacity=".35"/></filter><linearGradient id="bg" x1="0" y1="0" x2="1" y2="1"><stop offset="0" stop-color="#2F8CFF"/><stop offset="1" stop-color="#6A3DF5"/></linearGradient></defs>
<rect width="1024" height="1024" fill="url(#bg)"/><rect width="1024" height="1024" fill="url(#gl)"/>
<g filter="url(#sh)" fill="#fff"><circle cx="512" cy="330" r="62"/>
<path d="M512 410C440 410 400 440 392 500L384 560C382 585 420 590 424 565L440 500H584L600 565C604 590 642 585 640 560L632 500C624 440 584 410 512 410Z"/>
<path d="M468 600H556L580 800C583 826 540 830 536 806L512 690L488 806C484 830 441 826 444 800Z"/>
<rect x="250" y="236" width="524" height="30" rx="15" fill="#7FF0FF"/><rect x="226" y="190" width="44" height="122" rx="18" fill="#7FF0FF"/><rect x="754" y="190" width="44" height="122" rx="18" fill="#7FF0FF"/><rect x="288" y="206" width="30" height="92" rx="14" fill="#7FF0FF"/><rect x="706" y="206" width="30" height="92" rx="14" fill="#7FF0FF"/>
<path d="M392 500 L330 300" stroke="#fff" stroke-width="40" stroke-linecap="round"/><path d="M632 500 L694 300" stroke="#fff" stroke-width="40" stroke-linecap="round"/></g></svg>
